<?xml version="1.0" standalone="no"?>
<!DOCTYPE svg PUBLIC "-//W3C//DTD SVG 20010904//EN"
 "http://www.w3.org/TR/2001/REC-SVG-20010904/DTD/svg10.dtd">
<svg version="1.0" xmlns="http://www.w3.org/2000/svg"
 width="690.000000pt" height="690.000000pt" viewBox="0 0 690.000000 690.000000"
 preserveAspectRatio="xMidYMid meet">

<g transform="translate(0.000000,690.000000) scale(0.100000,-0.100000)"
fill="#000000" stroke="none">
<path d="M1374 6458 c-21 -29 -47 -62 -56 -72 -10 -11 -18 -26 -18 -33 0 -8
-3 -12 -7 -10 -8 5 -32 -26 -192 -238 -41 -55 -81 -104 -87 -110 -7 -5 -46
-55 -87 -110 -41 -55 -91 -120 -110 -145 -20 -24 -33 -48 -30 -54 3 -5 2 -6
-4 -3 -5 3 -27 -17 -49 -46 -21 -29 -70 -92 -108 -140 -37 -48 -66 -90 -63
-93 7 -7 957 94 967 103 6 6 -102 987 -110 996 -4 5 -25 -16 -46 -45z"/>
<path d="M2519 5808 c-167 -171 -388 -396 -490 -499 l-185 -188 161 -160 c89
-89 165 -158 170 -153 5 4 6 2 2 -3 -6 -12 141 -161 155 -157 5 1 7 -1 5 -6
-3 -4 107 -120 244 -257 l249 -249 0 992 c0 546 -1 992 -3 992 -2 0 -140 -140
-308 -312z"/>
<path d="M2960 5122 l0 -992 957 0 957 0 -39 41 c-22 23 -67 69 -100 103 -73
76 -444 462 -575 599 -52 55 -124 129 -160 166 -36 37 -150 157 -255 266 -104
110 -239 250 -300 312 -60 61 -159 164 -219 227 -60 64 -113 113 -119 109 -6
-3 -7 -2 -4 4 3 5 -28 43 -68 83 l-75 74 0 -992z"/>
<path d="M4419 5690 c-499 -32 -911 -59 -916 -61 -6 -2 67 -75 161 -161 94
-87 192 -177 217 -200 25 -24 63 -58 85 -77 21 -19 86 -77 143 -130 58 -53
130 -118 160 -146 119 -109 189 -173 266 -245 44 -41 130 -120 190 -175 60
-55 120 -111 135 -125 14 -14 44 -40 66 -59 21 -19 66 -59 99 -90 34 -31 105
-96 160 -146 54 -49 128 -117 163 -150 36 -33 71 -59 78 -59 8 1 12 -1 9 -5
-2 -4 18 -30 45 -56 28 -27 50 -44 50 -37 0 15 -41 683 -75 1217 -13 209 -26
427 -29 485 -3 58 -8 144 -12 193 l-7 87 -41 -1 c-22 -1 -449 -27 -947 -59z"/>
<path d="M5521 5673 c4 -21 33 -148 64 -283 31 -135 78 -344 105 -465 86 -384
122 -540 124 -543 3 -2 77 103 86 122 6 13 205 316 217 331 23 28 103 156 103
164 0 5 4 11 8 13 4 2 33 41 65 88 l57 84 -83 53 c-45 29 -88 51 -95 48 -7 -3
-10 -1 -7 5 3 5 -32 32 -77 60 -46 28 -128 80 -183 115 -55 36 -116 74 -135
85 -19 11 -84 52 -143 90 -60 39 -110 70 -112 70 -1 0 1 -17 6 -37z"/>
<path d="M562 5337 c9 -7 137 -130 285 -273 147 -144 291 -282 318 -309 28
-26 125 -121 217 -211 l168 -164 465 0 c256 0 465 2 465 4 0 10 -60 63 -65 58
-3 -3 -5 0 -5 7 0 7 -200 213 -443 457 l-444 444 -489 0 c-396 -1 -486 -3
-472 -13z"/>
<path d="M2960 3440 l0 -510 505 0 505 0 0 510 0 510 -505 0 -505 0 0 -510z"/>
<path d="M3192 2565 c-125 -123 -235 -238 -245 -255 l-18 -30 58 0 58 0 171
173 c219 221 226 227 249 214 10 -5 103 -95 207 -198 l189 -189 66 0 c66 0 66
0 48 20 -10 12 -25 18 -32 15 -8 -3 -11 0 -7 6 8 14 -96 120 -109 112 -6 -3
-7 -2 -4 4 8 13 -147 166 -158 156 -4 -4 -5 -3 -2 3 8 14 -116 137 -128 127
-4 -4 -6 -3 -2 2 7 13 -12 38 -40 53 -54 29 -63 23 -301 -213z"/>
<path d="M3291 2435 c-117 -116 -151 -155 -135 -155 22 0 32 9 178 160 97 100
118 115 143 101 10 -5 74 -66 143 -135 75 -76 132 -126 144 -126 16 0 8 11
-32 51 -28 28 -56 48 -62 44 -5 -3 -7 0 -5 7 7 19 -60 82 -76 73 -8 -6 -10 -4
-4 4 9 16 -54 83 -73 76 -7 -2 -10 -1 -7 5 6 10 -33 50 -49 50 -5 0 -80 -70
-165 -155z"/>
<path d="M2950 2223 c0 -4 109 -116 242 -250 254 -254 276 -270 323 -239 28
18 465 458 477 481 8 13 0 15 -50 15 -61 0 -92 -16 -76 -41 5 -8 3 -9 -5 -4
-8 5 -74 -54 -191 -170 -160 -159 -181 -177 -204 -171 -14 3 -26 11 -26 17 0
6 -4 7 -10 4 -5 -3 -10 0 -10 7 0 18 -145 160 -154 151 -3 -3 -6 0 -6 9 0 16
-60 74 -72 70 -5 -1 -8 4 -8 11 0 8 -24 37 -54 65 -53 51 -56 52 -115 52 -34
0 -61 -3 -61 -7z"/>
<path d="M3255 2123 c60 -60 113 -107 118 -105 4 1 6 -2 3 -7 -5 -8 76 -91 89
-91 18 0 45 23 39 32 -4 6 -3 8 3 5 13 -8 246 227 236 238 -4 4 -3 5 4 1 7 -4
17 2 23 14 26 49 -22 12 -150 -115 -75 -74 -143 -135 -151 -135 -8 0 -75 61
-149 135 -82 83 -142 135 -155 135 -14 0 11 -30 90 -107z"/>
</g>
</svg>
